<svg width="24" height="18" viewBox="0 0 24 18" fill="none" xmlns="http://www.w3.org/2000/svg">
<path d="M22.5 16.5H21.75V3.75C21.75 3.55109 21.671 3.36032 21.5303 3.21967C21.3897 3.07902 21.1989 3 21 3H17.25V0.75C17.25 0.551088 17.171 0.360322 17.0303 0.21967C16.8897 0.0790178 16.6989 0 16.5 0H7.5C7.30109 0 7.11032 0.0790178 6.96967 0.21967C6.82902 0.360322 6.75 0.551088 6.75 0.75V6H3C2.80109 6 2.61032 6.07902 2.46967 6.21967C2.32902 6.36032 2.25 6.55109 2.25 6.75V16.5H1.5C1.30109 16.5 1.11032 16.579 0.96967 16.7197C0.829018 16.8603 0.75 17.0511 0.75 17.25C0.75 17.4489 0.829018 17.6397 0.96967 17.7803C1.11032 17.921 1.30109 18 1.5 18H22.5C22.6989 18 22.8897 17.921 23.0303 17.7803C23.171 17.6397 23.25 17.4489 23.25 17.25C23.25 17.0511 23.171 16.8603 23.0303 16.7197C22.8897 16.579 22.6989 16.5 22.5 16.5ZM7.5 13.5H6C5.80109 13.5 5.61032 13.421 5.46967 13.2803C5.32902 13.1397 5.25 12.9489 5.25 12.75C5.25 12.5511 5.32902 12.3603 5.46967 12.2197C5.61032 12.079 5.80109 12 6 12H7.5C7.69891 12 7.88968 12.079 8.03033 12.2197C8.17098 12.3603 8.25 12.5511 8.25 12.75C8.25 12.9489 8.17098 13.1397 8.03033 13.2803C7.88968 13.421 7.69891 13.5 7.5 13.5ZM7.5 10.5H6C5.80109 10.5 5.61032 10.421 5.46967 10.2803C5.32902 10.1397 5.25 9.94891 5.25 9.75C5.25 9.55109 5.32902 9.36032 5.46967 9.21967C5.61032 9.07902 5.80109 9 6 9H7.5C7.69891 9 7.88968 9.07902 8.03033 9.21967C8.17098 9.36032 8.25 9.55109 8.25 9.75C8.25 9.94891 8.17098 10.1397 8.03033 10.2803C7.88968 10.421 7.69891 10.5 7.5 10.5ZM13.5 16.5H10.5V12.75H13.5V16.5ZM12.75 10.5H11.25C11.0511 10.5 10.8603 10.421 10.7197 10.2803C10.579 10.1397 10.5 9.94891 10.5 9.75C10.5 9.55109 10.579 9.36032 10.7197 9.21967C10.8603 9.07902 11.0511 9 11.25 9H12.75C12.9489 9 13.1397 9.07902 13.2803 9.21967C13.421 9.36032 13.5 9.55109 13.5 9.75C13.5 9.94891 13.421 10.1397 13.2803 10.2803C13.1397 10.421 12.9489 10.5 12.75 10.5ZM12.75 7.5H11.25C11.0511 7.5 10.8603 7.42098 10.7197 7.28033C10.579 7.13968 10.5 6.94891 10.5 6.75C10.5 6.55109 10.579 6.36032 10.7197 6.21967C10.8603 6.07902 11.0511 6 11.25 6H12.75C12.9489 6 13.1397 6.07902 13.2803 6.21967C13.421 6.36032 13.5 6.55109 13.5 6.75C13.5 6.94891 13.421 7.13968 13.2803 7.28033C13.1397 7.42098 12.9489 7.5 12.75 7.5ZM12.75 4.5H11.25C11.0511 4.5 10.8603 4.42098 10.7197 4.28033C10.579 4.13968 10.5 3.94891 10.5 3.75C10.5 3.55109 10.579 3.36032 10.7197 3.21967C10.8603 3.07902 11.0511 3 11.25 3H12.75C12.9489 3 13.1397 3.07902 13.2803 3.21967C13.421 3.36032 13.5 3.55109 13.5 3.75C13.5 3.94891 13.421 4.13968 13.2803 4.28033C13.1397 4.42098 12.9489 4.5 12.75 4.5ZM18 13.5H16.5C16.3011 13.5 16.1103 13.421 15.9697 13.2803C15.829 13.1397 15.75 12.9489 15.75 12.75C15.75 12.5511 15.829 12.3603 15.9697 12.2197C16.1103 12.079 16.3011 12 16.5 12H18C18.1989 12 18.3897 12.079 18.5303 12.2197C18.671 12.3603 18.75 12.5511 18.75 12.75C18.75 12.9489 18.671 13.1397 18.5303 13.2803C18.3897 13.421 18.1989 13.5 18 13.5ZM18 10.5H16.5C16.3011 10.5 16.1103 10.421 15.9697 10.2803C15.829 10.1397 15.75 9.94891 15.75 9.75C15.75 9.55109 15.829 9.36032 15.9697 9.21967C16.1103 9.07902 16.3011 9 16.5 9H18C18.1989 9 18.3897 9.07902 18.5303 9.21967C18.671 9.36032 18.75 9.55109 18.75 9.75C18.75 9.94891 18.671 10.1397 18.5303 10.2803C18.3897 10.421 18.1989 10.5 18 10.5ZM18 7.5H16.5C16.3011 7.5 16.1103 7.42098 15.9697 7.28033C15.829 7.13968 15.75 6.94891 15.75 6.75C15.75 6.55109 15.829 6.36032 15.9697 6.21967C16.1103 6.07902 16.3011 6 16.5 6H18C18.1989 6 18.3897 6.07902 18.5303 6.21967C18.671 6.36032 18.75 6.55109 18.75 6.75C18.75 6.94891 18.671 7.13968 18.5303 7.28033C18.3897 7.42098 18.1989 7.5 18 7.5Z" fill="#009CA6"/>
</svg>
