<svg width="38" height="30" viewBox="0 0 38 30" fill="none" xmlns="http://www.w3.org/2000/svg">
<g clip-path="url(#clip0_3_3217)">
<path d="M6.19452 12.5976V15.0146H9.54023C9.47275 15.3999 9.32828 15.7677 9.11546 16.0959C8.90263 16.4241 8.62581 16.706 8.30155 16.9248C7.74257 17.3086 7.0289 17.5271 6.19218 17.5271C4.57499 17.5271 3.208 16.4191 2.71757 14.9361C2.46094 14.1559 2.46094 13.314 2.71757 12.5337C3.208 11.0419 4.57499 9.93394 6.19218 9.93394C6.63053 9.92578 7.06613 10.0049 7.47363 10.1666C7.88113 10.3284 8.25239 10.5696 8.56581 10.8761L10.34 9.08199C9.2226 8.02031 7.73581 7.43526 6.19452 7.45074C5.04153 7.45516 3.91272 7.78181 2.93555 8.39382C1.95837 9.00582 1.17174 9.8788 0.664444 10.9142C0.227473 11.7892 0 12.7539 0 13.732C0 14.7101 0.227473 15.6747 0.664444 16.5498V16.5586C1.17187 17.5934 1.95872 18.4655 2.936 19.0765C3.91328 19.6874 5.042 20.0127 6.19452 20.0156C7.86269 20.0156 9.27362 19.4572 10.2961 18.4974C11.468 17.407 12.1365 15.7933 12.1365 13.8738C12.1372 13.4463 12.1029 13.0195 12.034 12.5976H6.19452ZM29.0115 12.3632C28.418 11.8136 27.6094 11.5347 26.5863 11.5347C25.2703 11.5347 24.2812 12.0234 23.6273 12.9914L24.849 13.7683C25.2963 13.1043 25.9068 12.7722 26.6807 12.7722C27.1733 12.7734 27.6482 12.9569 28.0137 13.2873C28.1918 13.4419 28.3346 13.633 28.4326 13.8476C28.5305 14.0622 28.5813 14.2953 28.5814 14.5312V14.8541C28.0482 14.557 27.3773 14.4 26.5517 14.4C25.5885 14.4 24.8144 14.6273 24.2379 15.0896C23.6613 15.5519 23.3695 16.1625 23.3695 16.9388C23.3605 17.2858 23.4292 17.6304 23.5705 17.9474C23.7118 18.2644 23.9222 18.5458 24.1863 18.7711C24.7283 19.2597 25.4168 19.5041 26.2248 19.5041C27.1793 19.5041 27.9363 19.0763 28.51 18.2214H28.5685V19.2597H29.8934V14.6484C29.8975 13.6787 29.6051 12.9105 29.0115 12.3632ZM27.8848 17.5957C27.6816 17.8024 27.4393 17.9667 27.172 18.0789C26.9047 18.1912 26.6178 18.2492 26.3279 18.2496C25.9382 18.2561 25.5584 18.1266 25.2539 17.8834C25.1118 17.7769 24.9966 17.6385 24.9175 17.4795C24.8384 17.3205 24.7977 17.1451 24.7986 16.9675C24.7986 16.5574 24.9873 16.2169 25.3576 15.9468C25.7279 15.6767 26.209 15.5367 26.768 15.5367C27.5391 15.5273 28.1426 15.7031 28.5726 16.0511C28.5726 16.6447 28.3406 17.1591 27.8848 17.5957ZM22.3975 9.27535C22.0865 8.9645 21.716 8.71968 21.3081 8.55556C20.9002 8.39144 20.4634 8.31141 20.0238 8.32027H16.3517V19.2621H17.7363V14.83H20.0215C20.959 14.83 21.75 14.516 22.3951 13.8966C22.4467 13.8445 22.4982 13.7918 22.5504 13.7396C23.115 13.1234 23.4153 12.3103 23.3867 11.4751C23.3581 10.6398 23.0029 9.84912 22.3975 9.273V9.27535ZM21.426 12.9216C21.2514 13.108 21.0392 13.2549 20.8033 13.3527C20.5675 13.4505 20.3136 13.4969 20.0584 13.4888H17.7363V9.66793H20.0584C20.5539 9.66613 21.03 9.86057 21.3826 10.2087C21.7413 10.566 21.9465 11.049 21.9546 11.5552C21.9627 12.0614 21.7731 12.5508 21.426 12.9193V12.9216ZM35.9947 11.7773L33.8537 17.1503H33.8273L31.6348 11.7773H30.1295L33.1641 18.7822L31.4443 22.5509H32.8711L37.5 11.7773H35.9947Z" fill="#E0F7FA"/>
</g>
<defs>
<clipPath id="clip0_3_3217">
<path d="M0 0H37.5V30H0V0Z" fill="white"/>
</clipPath>
</defs>
</svg>
