<svg width="22" height="18" viewBox="0 0 22 18" fill="none" xmlns="http://www.w3.org/2000/svg">
<path d="M19.75 8.6875V8.81641L22.4727 6.09375C23.3281 5.23828 23.3281 3.85547 22.4727 3L19.4219 -0.0468751C18.5664 -0.902344 17.1836 -0.902344 16.3281 -0.0468751L14.7617 1.51953C14.6562 1.50781 14.5469 1.5 14.4375 1.5H10.0625C8.61328 1.5 7.42188 2.59375 7.26562 4H7.25V8.6875C7.25 9.55078 7.94922 10.25 8.8125 10.25C9.67578 10.25 10.375 9.55078 10.375 8.6875V5.875V5.87109V5.25H11H16.3125C16.3125 5.25 16.3125 5.25 16.3164 5.25H16.625C18.3516 5.25 19.75 6.64844 19.75 8.375V8.6875ZM11.625 6.5V8.6875C11.625 10.2422 10.3672 11.5 8.8125 11.5C7.25781 11.5 6 10.2422 6 8.6875V4.05469C4.59766 4.29687 3.42969 5.31641 3.03125 6.71875L2.38672 8.96875L-0.472656 11.8281C-1.32813 12.6836 -1.32813 14.0664 -0.472656 14.9219L2.57812 17.9727C3.43359 18.8281 4.81641 18.8281 5.67188 17.9727L7.14453 16.5C7.17969 16.5 7.21484 16.5039 7.25 16.5039H13.5C14.5352 16.5039 15.375 15.6641 15.375 14.6289C15.375 14.4102 15.3359 14.1992 15.2695 14.0039H15.375C16.4102 14.0039 17.25 13.1641 17.25 12.1289C17.25 11.6289 17.0547 11.1758 16.7344 10.8398C17.7383 10.6445 18.4961 9.76172 18.5 8.69922V8.68359C18.4961 7.48047 17.5195 6.50391 16.3125 6.50391H11.625V6.5Z" fill="#009CA6"/>
</svg>
