<svg width="19" height="20" viewBox="0 0 19 20" fill="none" xmlns="http://www.w3.org/2000/svg">
<path d="M10.5 18.375C10.5 18.6734 10.3815 18.9595 10.1705 19.1705C9.95952 19.3815 9.67337 19.5 9.375 19.5H7.875C7.57663 19.5 7.29048 19.3815 7.0795 19.1705C6.86853 18.9595 6.75 18.6734 6.75 18.375C6.75 18.0766 6.86853 17.7905 7.0795 17.5795C7.29048 17.3685 7.57663 17.25 7.875 17.25H9.375C9.67337 17.25 9.95952 17.3685 10.1705 17.5795C10.3815 17.7905 10.5 18.0766 10.5 18.375ZM17.625 0H2.625C2.32663 6.28765e-09 2.04048 0.118526 1.8295 0.329505C1.61853 0.540483 1.5 0.826631 1.5 1.125C1.5 1.42337 1.61853 1.70952 1.8295 1.9205C2.04048 2.13147 2.32663 2.25 2.625 2.25C2.92337 2.25 3.20952 2.36853 3.4205 2.5795C3.63147 2.79048 3.75 3.07663 3.75 3.375C3.75 3.67337 3.63147 3.95952 3.4205 4.1705C3.20952 4.38147 2.92337 4.5 2.625 4.5H1.125C0.826631 4.5 0.540483 4.61853 0.329505 4.8295C0.118526 5.04048 0 5.32663 0 5.625C0 5.92337 0.118526 6.20952 0.329505 6.4205C0.540483 6.63147 0.826631 6.75 1.125 6.75H4.125C4.42337 6.75 4.70952 6.86853 4.9205 7.0795C5.13147 7.29048 5.25 7.57663 5.25 7.875C5.25 8.17337 5.13147 8.45952 4.9205 8.6705C4.70952 8.88147 4.42337 9 4.125 9C3.82663 9 3.54048 9.11853 3.3295 9.32951C3.11853 9.54048 3 9.82663 3 10.125C3 10.4234 3.11853 10.7095 3.3295 10.9205C3.54048 11.1315 3.82663 11.25 4.125 11.25H8.625C8.92337 11.25 9.20952 11.3685 9.42049 11.5795C9.63147 11.7905 9.75 12.0766 9.75 12.375C9.75 12.6734 9.63147 12.9595 9.42049 13.1705C9.20952 13.3815 8.92337 13.5 8.625 13.5C8.32663 13.5 8.04048 13.6185 7.8295 13.8295C7.61853 14.0405 7.5 14.3266 7.5 14.625C7.5 14.9234 7.61853 15.2095 7.8295 15.4205C8.04048 15.6315 8.32663 15.75 8.625 15.75H13.125C13.4234 15.75 13.7095 15.6315 13.9205 15.4205C14.1315 15.2095 14.25 14.9234 14.25 14.625C14.25 14.3266 14.1315 14.0405 13.9205 13.8295C13.7095 13.6185 13.4234 13.5 13.125 13.5C12.8266 13.5 12.5405 13.3815 12.3295 13.1705C12.1185 12.9595 12 12.6734 12 12.375C12 12.0766 12.1185 11.7905 12.3295 11.5795C12.5405 11.3685 12.8266 11.25 13.125 11.25H14.625C14.9234 11.25 15.2095 11.1315 15.4205 10.9205C15.6315 10.7095 15.75 10.4234 15.75 10.125C15.75 9.82663 15.6315 9.54048 15.4205 9.32951C15.2095 9.11853 14.9234 9 14.625 9H12.375C12.0766 9 11.7905 8.88147 11.5795 8.6705C11.3685 8.45952 11.25 8.17337 11.25 7.875C11.25 7.57663 11.3685 7.29048 11.5795 7.0795C11.7905 6.86853 12.0766 6.75 12.375 6.75C12.6734 6.75 12.9595 6.63147 13.1705 6.4205C13.3815 6.20952 13.5 5.92337 13.5 5.625C13.5 5.32663 13.3815 5.04048 13.1705 4.8295C12.9595 4.61853 12.6734 4.5 12.375 4.5C12.0766 4.5 11.7905 4.38147 11.5795 4.1705C11.3685 3.95952 11.25 3.67337 11.25 3.375C11.25 3.07663 11.3685 2.79048 11.5795 2.5795C11.7905 2.36853 12.0766 2.25 12.375 2.25H17.625C17.9234 2.25 18.2095 2.13147 18.4205 1.9205C18.6315 1.70952 18.75 1.42337 18.75 1.125C18.75 0.826631 18.6315 0.540483 18.4205 0.329505C18.2095 0.118526 17.9234 6.28765e-09 17.625 0Z" fill="#009CA6"/>
</svg>
