<svg width="35" height="30" viewBox="0 0 35 30" fill="none" xmlns="http://www.w3.org/2000/svg">
<g clip-path="url(#clip0_3_3211)">
<path d="M29.0449 24.041C29.0449 24.4395 28.7754 24.7266 28.3887 24.7266C27.9902 24.7266 27.7324 24.4219 27.7324 24.041C27.7324 23.6602 27.9902 23.3555 28.3887 23.3555C28.7754 23.3555 29.0449 23.6602 29.0449 24.041ZM10.834 23.3555C10.418 23.3555 10.1777 23.6602 10.1777 24.041C10.1777 24.4219 10.418 24.7266 10.834 24.7266C11.2148 24.7266 11.4727 24.4395 11.4727 24.041C11.4668 23.6602 11.2148 23.3555 10.834 23.3555ZM17.7188 23.3379C17.4023 23.3379 17.209 23.543 17.1621 23.8477H18.2812C18.2285 23.5137 18.0234 23.3379 17.7188 23.3379ZM24.0352 23.3555C23.6367 23.3555 23.3965 23.6602 23.3965 24.041C23.3965 24.4219 23.6367 24.7266 24.0352 24.7266C24.4336 24.7266 24.6914 24.4395 24.6914 24.041C24.6914 23.6602 24.4336 23.3555 24.0352 23.3555ZM30.2402 24.8848C30.2402 24.9023 30.2578 24.9141 30.2578 24.9492C30.2578 24.9668 30.2402 24.9785 30.2402 25.0137C30.2227 25.0312 30.2227 25.043 30.2109 25.0605C30.1934 25.0781 30.1816 25.0898 30.1465 25.0898C30.1289 25.1074 30.1172 25.1074 30.082 25.1074C30.0645 25.1074 30.0527 25.1074 30.0176 25.0898C30 25.0898 29.9883 25.0723 29.9707 25.0605C29.9531 25.043 29.9414 25.0312 29.9414 25.0137C29.9238 24.9844 29.9238 24.9668 29.9238 24.9492C29.9238 24.9199 29.9238 24.9023 29.9414 24.8848C29.9414 24.8555 29.959 24.8379 29.9707 24.8203C29.9883 24.8027 30 24.8027 30.0176 24.791C30.0469 24.7734 30.0645 24.7734 30.082 24.7734C30.1113 24.7734 30.1289 24.7734 30.1465 24.791C30.1758 24.8086 30.1934 24.8086 30.2109 24.8203C30.2285 24.832 30.2227 24.8555 30.2402 24.8848ZM30.1113 24.9668C30.1406 24.9668 30.1406 24.9492 30.1582 24.9492C30.1758 24.9316 30.1758 24.9199 30.1758 24.9023C30.1758 24.8848 30.1758 24.873 30.1582 24.8555C30.1406 24.8555 30.1289 24.8379 30.0938 24.8379H30V25.043H30.0469V24.9609H30.0645L30.1289 25.043H30.1758L30.1113 24.9668ZM34.5 4.74609V25.3711C34.5 26.9238 33.2402 28.1836 31.6875 28.1836H3.5625C2.00977 28.1836 0.75 26.9238 0.75 25.3711V4.74609C0.75 3.19336 2.00977 1.93359 3.5625 1.93359H31.6875C33.2402 1.93359 34.5 3.19336 34.5 4.74609ZM4.5 12.9258C4.5 17.4082 8.13867 21.041 12.6152 21.041C14.209 21.041 15.7734 20.5605 17.0977 19.6875C12.8262 16.2129 12.8555 9.65625 17.0977 6.18164C15.7734 5.30273 14.209 4.82812 12.6152 4.82812C8.13867 4.82227 4.5 8.46094 4.5 12.9258ZM17.625 19.3008C21.7559 16.0781 21.7383 9.79688 17.625 6.55664C13.5117 9.79688 13.4941 16.084 17.625 19.3008ZM9.28711 23.7715C9.28711 23.2617 8.95312 22.9277 8.42578 22.9102C8.15625 22.9102 7.86914 22.9922 7.67578 23.291C7.53516 23.0508 7.29492 22.9102 6.96094 22.9102C6.73828 22.9102 6.51562 22.9922 6.33984 23.2266V22.9688H5.85938V25.1191H6.33984C6.33984 24.0117 6.19336 23.3496 6.86719 23.3496C7.46484 23.3496 7.34766 23.9473 7.34766 25.1191H7.81055C7.81055 24.0469 7.66406 23.3496 8.33789 23.3496C8.93555 23.3496 8.81836 23.9355 8.81836 25.1191H9.29883V23.7715H9.28711ZM11.918 22.9688H11.4551V23.2266C11.2969 23.0332 11.0742 22.9102 10.7695 22.9102C10.166 22.9102 9.70312 23.3906 9.70312 24.041C9.70312 24.6973 10.166 25.1719 10.7695 25.1719C11.0742 25.1719 11.2969 25.0605 11.4551 24.8555V25.125H11.918V22.9688ZM14.291 24.4688C14.291 23.5898 12.9492 23.9883 12.9492 23.5781C12.9492 23.2441 13.6465 23.2969 14.0332 23.5137L14.2266 23.1328C13.6758 22.7754 12.457 22.7812 12.457 23.6133C12.457 24.4512 13.7988 24.0996 13.7988 24.4922C13.7988 24.8613 13.0078 24.832 12.5859 24.5391L12.3809 24.9082C13.0371 25.3535 14.291 25.2598 14.291 24.4688ZM16.3652 25.0137L16.2363 24.6152C16.0137 24.7383 15.5215 24.873 15.5215 24.375V23.4023H16.2891V22.9688H15.5215V22.3125H15.041V22.9688H14.5957V23.3965H15.041V24.375C15.041 25.4062 16.0547 25.2188 16.3652 25.0137ZM17.1445 24.2285H18.7559C18.7559 23.2793 18.3223 22.9043 17.7363 22.9043C17.1152 22.9043 16.6699 23.3672 16.6699 24.0352C16.6699 25.2363 17.9941 25.4355 18.6504 24.8672L18.4277 24.5156C17.9707 24.8906 17.2793 24.8555 17.1445 24.2285ZM20.6074 22.9688C20.3379 22.8516 19.9277 22.8633 19.7168 23.2266V22.9688H19.2363V25.1191H19.7168V23.9062C19.7168 23.2266 20.2734 23.3145 20.4668 23.4141L20.6074 22.9688ZM21.2285 24.041C21.2285 23.373 21.9082 23.1562 22.4414 23.5488L22.6641 23.168C21.9844 22.6348 20.748 22.9277 20.748 24.0469C20.748 25.207 22.0605 25.4414 22.6641 24.9258L22.4414 24.5449C21.9023 24.9258 21.2285 24.6973 21.2285 24.041ZM25.1367 22.9688H24.6562V23.2266C24.1699 22.582 22.9043 22.9453 22.9043 24.041C22.9043 25.166 24.2168 25.4883 24.6562 24.8555V25.125H25.1367V22.9688ZM27.1113 22.9688C26.9707 22.8984 26.4668 22.7988 26.2207 23.2266V22.9688H25.7578V25.1191H26.2207V23.9062C26.2207 23.2617 26.748 23.3027 26.9707 23.4141L27.1113 22.9688ZM29.4727 22.0957H29.0098V23.2266C28.5293 22.5879 27.2578 22.9277 27.2578 24.041C27.2578 25.1777 28.5762 25.4824 29.0098 24.8555V25.125H29.4727V22.0957ZM29.918 17.6953V17.9648H29.9648V17.6953H30.0762V17.6484H29.8066V17.6953H29.918ZM30.3047 24.9492C30.3047 24.9199 30.3047 24.8848 30.2871 24.8555C30.2695 24.8379 30.2578 24.8086 30.2402 24.791C30.2227 24.7734 30.1934 24.7617 30.1758 24.7441C30.1465 24.7441 30.1113 24.7266 30.082 24.7266C30.0645 24.7266 30.0352 24.7441 30 24.7441C29.9707 24.7617 29.9531 24.7734 29.9355 24.791C29.9062 24.8086 29.8887 24.8379 29.8887 24.8555C29.8711 24.8848 29.8711 24.9199 29.8711 24.9492C29.8711 24.9668 29.8711 24.9961 29.8887 25.0312C29.8887 25.0488 29.9062 25.0781 29.9355 25.0957C29.9531 25.1133 29.9648 25.125 30 25.1426C30.0293 25.1602 30.0645 25.1602 30.082 25.1602C30.1113 25.1602 30.1465 25.1602 30.1758 25.1426C30.1934 25.125 30.2227 25.1133 30.2402 25.0957C30.2578 25.0781 30.2695 25.0488 30.2871 25.0312C30.3047 24.9961 30.3047 24.9668 30.3047 24.9492ZM30.4922 17.6426H30.4102L30.3164 17.8477L30.2227 17.6426H30.1406V17.959H30.1875V17.7188L30.2812 17.9238H30.3457L30.4277 17.7188V17.959H30.4922V17.6426ZM30.75 12.9258C30.75 8.46094 27.1113 4.82227 22.6348 4.82227C21.041 4.82227 19.4766 5.30273 18.1523 6.17578C22.377 9.65039 22.4414 16.2246 18.1523 19.6816C19.4766 20.5605 21.0527 21.0352 22.6348 21.0352C27.1113 21.041 30.75 17.4082 30.75 12.9258Z" fill="#E0F7FA"/>
</g>
<defs>
<clipPath id="clip0_3_3211">
<path d="M0.75 0H34.5V30H0.75V0Z" fill="white"/>
</clipPath>
</defs>
</svg>
