<svg width="23" height="30" viewBox="0 0 23 30" fill="none" xmlns="http://www.w3.org/2000/svg">
<g clip-path="url(#clip0_3_3214)">
<path d="M7.02739 17.3379C6.82231 18.4629 6.00786 23.707 5.76763 25.1895C5.75005 25.2949 5.70903 25.336 5.59184 25.336H1.22075C0.775438 25.336 0.453172 24.9492 0.511766 24.5215L3.94536 2.73048C4.03325 2.16798 4.53716 1.74025 5.11723 1.74025C14.0411 1.74025 14.7911 1.52345 17.0704 2.40822C20.5918 3.77345 20.9141 7.06642 19.6485 10.6289C18.3887 14.2969 15.4004 15.8731 11.4395 15.9199C8.89653 15.961 7.36723 15.5098 7.02739 17.3379ZM21.4239 8.90626C21.3184 8.83009 21.2774 8.80079 21.2481 8.98243C21.1309 9.6504 20.9493 10.3008 20.7325 10.9512C18.3946 17.6192 11.9141 17.0391 8.75005 17.0391C8.39263 17.0391 8.15825 17.2324 8.11137 17.5899C6.78716 25.8164 6.52348 27.5332 6.52348 27.5332C6.46489 27.9492 6.72856 28.2891 7.14458 28.2891H10.8653C11.3692 28.2891 11.7852 27.9199 11.8848 27.416C11.9258 27.0996 11.8204 27.7735 12.7286 22.0664C12.9981 20.7774 13.5665 20.9121 14.4454 20.9121C18.6055 20.9121 21.8516 19.2246 22.8184 14.332C23.1993 12.293 23.0879 10.1485 21.4239 8.90626Z" fill="#E0F7FA"/>
</g>
<defs>
<clipPath id="clip0_3_3214">
<path d="M0.5 0H23V30H0.5V0Z" fill="white"/>
</clipPath>
</defs>
</svg>
