<svg width="20" height="20" viewBox="0 0 20 20" fill="none" xmlns="http://www.w3.org/2000/svg">
<path d="M6.82422 1.76172C7.50781 0.664062 8.71094 0 10 0C11.2891 0 12.4922 0.664062 13.1758 1.76172L14.6836 4.17188L15.7383 3.5625C16.0664 3.37109 16.4766 3.39844 16.7773 3.62891C17.0781 3.85938 17.2109 4.25 17.1133 4.61719L16.1992 8.03125C16.0664 8.53125 15.5508 8.82813 15.0508 8.69531L11.6367 7.78125C11.2695 7.68359 11 7.375 10.9492 7C10.8984 6.625 11.082 6.25391 11.4102 6.06641L12.5195 5.42578L11.0547 3.08594C10.8281 2.72266 10.4297 2.5 10 2.5C9.57031 2.5 9.17188 2.72266 8.94531 3.08594L8.26172 4.17969C7.90234 4.75781 7.14453 4.94141 6.55859 4.58984C5.96094 4.23047 5.76953 3.44922 6.14062 2.85547L6.82422 1.76172ZM16.7773 9.83984C17.3633 9.48828 18.1211 9.67188 18.4805 10.25L19.4336 11.7773C19.8008 12.3672 19.9961 13.043 20.0039 13.7383C20.0156 15.8125 18.3359 17.5039 16.2617 17.5039L12.5 17.5V18.75C12.5 19.1289 12.2734 19.4727 11.9219 19.6172C11.5703 19.7617 11.168 19.6836 10.8984 19.4141L8.39844 16.9141C8.03125 16.5469 8.03125 15.9531 8.39844 15.5898L10.8984 13.0898C11.168 12.8203 11.5703 12.7422 11.9219 12.8867C12.2734 13.0313 12.5 13.375 12.5 13.7539V15.0039H16.2578C16.9453 15.0039 17.5039 14.4414 17.5 13.7539C17.5 13.5234 17.4336 13.2969 17.3125 13.1016L16.3594 11.5742C15.9883 10.9805 16.1758 10.1992 16.7773 9.83984ZM2.53516 8.62891L1.40625 7.97656C1.07812 7.78516 0.894531 7.41797 0.945312 7.04297C0.996094 6.66797 1.26562 6.35938 1.63281 6.26172L5.04687 5.34766C5.54687 5.21484 6.0625 5.51172 6.19531 6.01172L7.10938 9.42188C7.20703 9.78906 7.07422 10.1758 6.77344 10.4102C6.47266 10.6445 6.0625 10.668 5.73438 10.4766L4.69922 9.87891L2.6875 13.0977C2.56641 13.293 2.5 13.5195 2.5 13.75C2.49609 14.4375 3.05469 15 3.74219 15H5C5.69141 15 6.25 15.5586 6.25 16.25C6.25 16.9414 5.69141 17.5 5 17.5H3.74219C1.66797 17.5 -0.0117188 15.8125 -8.69368e-08 13.7344C0.00390616 13.0391 0.199219 12.3633 0.570312 11.7734L2.53516 8.62891Z" fill="#009CA6"/>
</svg>
