<svg width="26" height="20" viewBox="0 0 26 20" fill="none" xmlns="http://www.w3.org/2000/svg">
<g clip-path="url(#clip0_2_16690)">
<path d="M6.90625 2.5C6.90625 1.12109 8.02734 0 9.40625 0H23.1562C24.5352 0 25.6562 1.12109 25.6562 2.5V13.75C25.6562 15.1289 24.5352 16.25 23.1562 16.25H13.8125C13.3516 15.2539 12.6445 14.3945 11.7656 13.75H15.6562V12.5C15.6562 11.8086 16.2148 11.25 16.9062 11.25H19.4062C20.0977 11.25 20.6562 11.8086 20.6562 12.5V13.75H23.1562V2.5H9.40625V4.41797C8.67188 3.99219 7.81641 3.75 6.90625 3.75V2.5ZM6.90625 5C7.39871 5 7.88634 5.097 8.34131 5.28545C8.79628 5.47391 9.20968 5.75013 9.5579 6.09835C9.90612 6.44657 10.1823 6.85997 10.3708 7.31494C10.5593 7.76991 10.6562 8.25754 10.6562 8.75C10.6562 9.24246 10.5593 9.73009 10.3708 10.1851C10.1823 10.64 9.90612 11.0534 9.5579 11.4017C9.20968 11.7499 8.79628 12.0261 8.34131 12.2145C7.88634 12.403 7.39871 12.5 6.90625 12.5C6.41379 12.5 5.92616 12.403 5.47119 12.2145C5.01622 12.0261 4.60282 11.7499 4.2546 11.4017C3.90638 11.0534 3.63016 10.64 3.4417 10.1851C3.25325 9.73009 3.15625 9.24246 3.15625 8.75C3.15625 8.25754 3.25325 7.76991 3.4417 7.31494C3.63016 6.85997 3.90638 6.44657 4.2546 6.09835C4.60282 5.75013 5.01622 5.47391 5.47119 5.28545C5.92616 5.097 6.41379 5 6.90625 5ZM5.86328 13.75H7.94531C10.8242 13.75 13.1562 16.082 13.1562 18.957C13.1562 19.5312 12.6914 20 12.1133 20H1.69922C1.12109 20 0.65625 19.5352 0.65625 18.957C0.65625 16.082 2.98828 13.75 5.86328 13.75Z" fill="#009CA6"/>
</g>
<defs>
<clipPath id="clip0_2_16690">
<path d="M0.65625 0H25.6562V20H0.65625V0Z" fill="white"/>
</clipPath>
</defs>
</svg>
