<svg width="38" height="28" viewBox="0 0 38 28" fill="none" xmlns="http://www.w3.org/2000/svg">
<path d="M8.6875 27.125C4.0293 27.125 0.25 23.3457 0.25 18.6875C0.25 15.0078 2.60547 11.8789 5.88672 10.7246C5.88086 10.5664 5.875 10.4082 5.875 10.25C5.875 5.07031 10.0703 0.875 15.25 0.875C18.7246 0.875 21.7539 2.76172 23.377 5.57422C24.2676 4.97656 25.3457 4.625 26.5 4.625C29.6055 4.625 32.125 7.14453 32.125 10.25C32.125 10.9648 31.9902 11.6445 31.75 12.2773C35.1719 12.9688 37.75 15.998 37.75 19.625C37.75 23.7676 34.3926 27.125 30.25 27.125H8.6875ZM13.3164 14.4102C12.7656 14.9609 12.7656 15.8516 13.3164 16.3965C13.8672 16.9414 14.7578 16.9473 15.3027 16.3965L17.5879 14.1113V21.9688C17.5879 22.748 18.2148 23.375 18.9941 23.375C19.7734 23.375 20.4004 22.748 20.4004 21.9688V14.1113L22.6855 16.3965C23.2363 16.9473 24.127 16.9473 24.6719 16.3965C25.2168 15.8457 25.2227 14.9551 24.6719 14.4102L19.9844 9.72266C19.4336 9.17188 18.543 9.17188 17.998 9.72266L13.3105 14.4102H13.3164Z" fill="black"/>
</svg>
