<svg width="46" height="36" viewBox="0 0 46 36" fill="none" xmlns="http://www.w3.org/2000/svg">
<path d="M6.10939 3.375C6.10939 2.47989 6.46497 1.62145 7.09791 0.988515C7.73084 0.355579 8.58928 0 9.48439 0C10.3795 0 11.2379 0.355579 11.8709 0.988515C12.5038 1.62145 12.8594 2.47989 12.8594 3.375C12.8594 4.27011 12.5038 5.12855 11.8709 5.76149C11.2379 6.39442 10.3795 6.75 9.48439 6.75C8.58928 6.75 7.73084 6.39442 7.09791 5.76149C6.46497 5.12855 6.10939 4.27011 6.10939 3.375ZM10.6094 16.9945V21.5719L14.1953 25.1578C14.6945 25.657 15.025 26.2969 15.1375 26.993L16.2063 33.3844C16.4102 34.6078 15.5805 35.768 14.357 35.9719C13.1336 36.1758 11.9735 35.3461 11.7695 34.1227L10.7641 28.0828L5.18127 22.5C4.33752 21.6562 3.85939 20.5102 3.85939 19.3148V13.1203C3.85939 10.8422 5.70158 9 7.9797 9C9.67423 9 11.2492 9.84375 12.1914 11.25L15.5242 16.2492L16.2344 16.6008V11.25C16.2344 10.0055 17.2399 9 18.4844 9H27.4844C28.7289 9 29.7344 10.0055 29.7344 11.25V16.6078L30.4445 16.2563L33.7774 11.25C34.7125 9.84375 36.2945 9 37.9891 9C40.2672 9 42.1094 10.8422 42.1094 13.1203V19.3148C42.1094 20.5102 41.6383 21.6562 40.7945 22.5L35.2117 28.0828L34.2063 34.1227C34.0024 35.3461 32.8422 36.1758 31.6188 35.9719C30.3953 35.768 29.5656 34.6078 29.7695 33.3844L30.8383 26.993C30.9508 26.2969 31.2813 25.657 31.7805 25.1578L35.3664 21.5719V16.9945L34.0305 18.9984C33.707 19.4906 33.257 19.8844 32.7297 20.1445L28.5391 22.2398C28.3703 22.3312 28.1945 22.3945 28.0047 22.4367C27.8219 22.4789 27.632 22.5 27.4492 22.493H18.5336C18.3578 22.5 18.182 22.4789 18.0063 22.4438C17.8024 22.4016 17.6125 22.3313 17.4367 22.2328L13.2531 20.1375C12.7258 19.8773 12.2828 19.4766 11.9524 18.9914L10.6164 16.9875L10.6094 16.9945ZM0.646109 32.9133L4.00705 24.5109L7.46642 27.9703L4.82267 34.5797C4.35861 35.7328 3.0508 36.2953 1.89767 35.8312C0.744547 35.3672 0.182047 34.0664 0.646109 32.9133ZM36.4844 0C37.3795 0 38.2379 0.355579 38.8709 0.988515C39.5038 1.62145 39.8594 2.47989 39.8594 3.375C39.8594 4.27011 39.5038 5.12855 38.8709 5.76149C38.2379 6.39442 37.3795 6.75 36.4844 6.75C35.5893 6.75 34.7308 6.39442 34.0979 5.76149C33.465 5.12855 33.1094 4.27011 33.1094 3.375C33.1094 2.47989 33.465 1.62145 34.0979 0.988515C34.7308 0.355579 35.5893 0 36.4844 0ZM41.9617 24.5109L45.3227 32.9133C45.7867 34.0664 45.2242 35.3742 44.0711 35.8383C42.918 36.3023 41.6102 35.7398 41.1461 34.5867L38.5024 27.9773L41.9617 24.518V24.5109Z" fill="#00858D"/>
</svg>
